<svg width="512" height="512" viewBox="0 0 512 512" xmlns="http://www.w3.org/2000/svg">
<path d="M474.644 74.27C449.391 45.616 414.358 29.836 376 29.836C322.052 29.836 287.897 62.056 268.745 89.086C263.776 96.1 259.549 103.133 256 109.751C252.451 103.133 248.225 96.1 243.255 89.086C224.103 62.056 189.948 29.836 136 29.836C97.642 29.836 62.609 45.617 37.355 74.271C13.267 101.605 0 138.213 0 177.351C0 219.954 16.633 259.579 52.345 302.051C84.262 340.011 130.179 379.139 183.35 424.448C203.163 441.332 223.652 458.792 245.465 477.877L246.12 478.451C248.948 480.927 252.474 482.164 256 482.164C259.526 482.164 263.052 480.926 265.88 478.451L266.535 477.877C288.348 458.792 308.837 441.333 328.653 424.446C381.821 379.14 427.738 340.012 459.655 302.051C495.367 259.578 512 219.954 512 177.351C512 138.213 498.733 101.605 474.644 74.27Z"/>
</svg>
